REM MD5 1b35ff61a950b63ee8988f00c5ce901a
FILE "Euro Demo Germany 08-02 (Germany).bin" BINARY
  TRACK 01 MODE2/2352
    INDEX 01 00:00:00
  TRACK 02 AUDIO
    INDEX 00 59:24:74
    INDEX 01 59:26:74
  TRACK 03 AUDIO
    INDEX 00 63:47:52
    INDEX 01 63:49:52
  TRACK 04 AUDIO
    INDEX 00 63:57:17
    INDEX 01 63:59:17
  TRACK 05 AUDIO
    INDEX 00 64:06:51
    INDEX 01 64:08:51
  TRACK 06 AUDIO
    INDEX 00 66:37:44
    INDEX 01 66:39:44
REM LEADOUT 69:41:01
